<?xml version="1.0" encoding="utf-8"?>
<!-- Generator: Adobe Illustrator 28.0.0, SVG Export Plug-In . SVG Version: 6.00 Build 0)  -->
<svg version="1.1" id="Layer_1" xmlns="http://www.w3.org/2000/svg" xmlns:xlink="http://www.w3.org/1999/xlink" x="0px" y="0px"
	 viewBox="0 0 229.2 73" style="enable-background:new 0 0 229.2 73;" xml:space="preserve">
<style type="text/css">
	.st0{enable-background:new    ;}
	.st1{fill:#15804F;}
</style>
<g>
	<g id="Logo_BAHL1.psd_2_">
		
			<image style="overflow:visible;enable-background:new    ;" width="1304" height="1419" id="Logo_BAHL1_1_" xlink:href="64C01ED4.png"  transform="matrix(5.144959e-02 0 0 5.144959e-02 0.1163 0)">
		</image>
	</g>
</g>
<g class="st0">
	<path class="st1" d="M86.4,45.4c1.1,0.2,1.9,0.6,2.5,1.1c0.8,0.7,1.1,1.6,1.1,2.7c0,0.8-0.3,1.6-0.8,2.3s-1.2,1.3-2.1,1.6
		s-2.2,0.5-4,0.5h-7.6v-0.4h0.6c0.7,0,1.2-0.2,1.4-0.6c0.2-0.3,0.3-0.9,0.3-1.8V40.4c0-1-0.1-1.6-0.3-1.9c-0.3-0.3-0.8-0.5-1.4-0.5
		h-0.6v-0.4h6.9c1.3,0,2.3,0.1,3.1,0.3c1.2,0.3,2.1,0.8,2.7,1.5s0.9,1.6,0.9,2.5c0,0.8-0.2,1.5-0.7,2.2
		C88.1,44.6,87.4,45.1,86.4,45.4z M80.2,44.7c0.3,0.1,0.6,0.1,1,0.1s0.8,0,1.2,0c1.2,0,2-0.1,2.6-0.4c0.6-0.2,1-0.6,1.3-1.1
		s0.5-1.1,0.5-1.7c0-0.9-0.4-1.7-1.1-2.4c-0.8-0.7-1.9-1-3.4-1c-0.8,0-1.5,0.1-2.1,0.3V44.7z M80.2,52.4c0.9,0.2,1.8,0.3,2.7,0.3
		c1.4,0,2.5-0.3,3.3-1s1.1-1.4,1.1-2.4c0-0.6-0.2-1.2-0.5-1.8s-0.9-1-1.7-1.4c-0.8-0.3-1.7-0.5-2.8-0.5c-0.5,0-0.9,0-1.3,0
		c-0.3,0-0.6,0-0.8,0.1C80.2,45.7,80.2,52.4,80.2,52.4z"/>
	<path class="st1" d="M98.3,52c-1.1,0.9-1.8,1.4-2.1,1.5c-0.4,0.2-0.9,0.3-1.4,0.3c-0.8,0-1.4-0.3-1.9-0.8s-0.7-1.2-0.7-2
		c0-0.5,0.1-1,0.4-1.4c0.3-0.5,0.9-1,1.7-1.5c0.8-0.5,2.1-1.1,4-1.7V46c0-1.1-0.2-1.8-0.5-2.2s-0.8-0.6-1.5-0.6
		c-0.5,0-0.9,0.1-1.2,0.4c-0.3,0.3-0.4,0.6-0.4,0.9v0.7c0,0.4-0.1,0.6-0.3,0.8c-0.2,0.2-0.4,0.3-0.7,0.3c-0.3,0-0.5-0.1-0.7-0.3
		s-0.3-0.5-0.3-0.8c0-0.7,0.3-1.3,1-1.9c0.7-0.6,1.7-0.9,2.9-0.9c1,0,1.8,0.2,2.4,0.5c0.5,0.2,0.8,0.6,1,1.1c0.1,0.3,0.2,1,0.2,2.1
		v3.7c0,1,0,1.7,0.1,1.9c0,0.2,0.1,0.4,0.2,0.5s0.2,0.1,0.3,0.1c0.1,0,0.2,0,0.3-0.1c0.2-0.1,0.5-0.4,1-0.9V52
		c-0.9,1.2-1.7,1.8-2.5,1.8c-0.4,0-0.7-0.1-0.9-0.4C98.5,53.1,98.3,52.7,98.3,52z M98.3,51.2v-4.1c-1.2,0.5-2,0.8-2.3,1
		c-0.6,0.3-1.1,0.7-1.3,1.1c-0.3,0.4-0.4,0.8-0.4,1.2c0,0.6,0.2,1,0.5,1.4s0.7,0.6,1.2,0.6C96.6,52.4,97.4,52,98.3,51.2z"/>
	<path class="st1" d="M106.1,44.7c1.3-1.5,2.5-2.3,3.6-2.3c0.6,0,1.1,0.1,1.5,0.4c0.4,0.3,0.8,0.8,1,1.5c0.2,0.5,0.3,1.2,0.3,2.2
		v4.6c0,0.7,0.1,1.2,0.2,1.4s0.2,0.4,0.4,0.5c0.2,0.1,0.6,0.2,1.1,0.2v0.4h-5.4v-0.4h0.2c0.5,0,0.9-0.1,1.1-0.2
		c0.2-0.2,0.3-0.4,0.4-0.7c0-0.1,0-0.5,0-1.1v-4.4c0-1-0.1-1.7-0.4-2.2c-0.3-0.4-0.7-0.7-1.3-0.7c-0.9,0-1.9,0.5-2.8,1.5v5.7
		c0,0.7,0,1.2,0.1,1.4s0.3,0.4,0.5,0.5s0.6,0.2,1.2,0.2v0.4h-5.4v-0.4h0.2c0.6,0,0.9-0.1,1.1-0.4c0.2-0.3,0.3-0.8,0.3-1.6v-4
		c0-1.3,0-2.1-0.1-2.4c-0.1-0.3-0.2-0.5-0.3-0.6c-0.1-0.1-0.3-0.2-0.5-0.2s-0.5,0.1-0.8,0.2l-0.2-0.4l3.3-1.3h0.5v2.2H106.1z"/>
	<path class="st1" d="M118.3,36.7v10.8l2.8-2.5c0.6-0.5,0.9-0.9,1-1s0.1-0.2,0.1-0.3c0-0.2-0.1-0.3-0.2-0.4
		c-0.1-0.1-0.3-0.2-0.6-0.2v-0.4h4.7v0.4c-0.6,0-1.2,0.1-1.6,0.3s-0.9,0.5-1.4,1l-2.8,2.6l2.8,3.5c0.8,1,1.3,1.6,1.6,1.8
		c0.4,0.4,0.7,0.6,1,0.7c0.2,0.1,0.5,0.1,1,0.1v0.4h-5.3v-0.4c0.3,0,0.5-0.1,0.6-0.1c0.1-0.1,0.2-0.2,0.2-0.3c0-0.2-0.2-0.5-0.5-0.9
		l-3.3-4.3v3.6c0,0.7,0,1.2,0.1,1.4s0.2,0.4,0.4,0.5c0.2,0.1,0.6,0.1,1.2,0.2v0.4h-5.5v-0.4c0.6,0,1-0.1,1.2-0.2
		c0.2-0.1,0.3-0.2,0.4-0.4c0.1-0.3,0.2-0.7,0.2-1.4v-9.9c0-1.3,0-2-0.1-2.3s-0.1-0.5-0.3-0.6c-0.1-0.1-0.3-0.2-0.5-0.2
		s-0.4,0.1-0.7,0.2l-0.2-0.4l3.2-1.3C117.8,36.7,118.3,36.7,118.3,36.7z"/>
	<path class="st1" d="M142.3,48.2h-6.2l-1.1,2.5c-0.3,0.6-0.4,1.1-0.4,1.4c0,0.2,0.1,0.5,0.3,0.6c0.2,0.2,0.7,0.3,1.5,0.4v0.4h-5.1
		v-0.4c0.7-0.1,1.1-0.3,1.3-0.5c0.4-0.4,0.8-1.1,1.3-2.3l5.7-13.2h0.4l5.6,13.4c0.5,1.1,0.9,1.8,1.2,2.1c0.4,0.3,0.9,0.5,1.5,0.5
		v0.4H142v-0.4c0.6,0,1.1-0.1,1.3-0.3s0.3-0.4,0.3-0.7s-0.2-0.9-0.5-1.6L142.3,48.2z M142,47.3l-2.7-6.5l-2.8,6.5H142z"/>
	<path class="st1" d="M162.6,49.1l0.4,0.1l-1.4,4.4h-12.4v-0.4h0.6c0.7,0,1.2-0.2,1.5-0.7c0.2-0.3,0.2-0.8,0.2-1.8V40.4
		c0-1-0.1-1.6-0.3-1.9c-0.3-0.3-0.8-0.5-1.4-0.5h-0.6v-0.4h7.3V38c-0.9,0-1.5,0.1-1.8,0.2c-0.3,0.2-0.6,0.4-0.7,0.6
		c-0.1,0.3-0.2,0.9-0.2,1.8v10.1c0,0.7,0.1,1.1,0.2,1.4c0.1,0.2,0.2,0.3,0.4,0.4c0.2,0.1,0.8,0.1,1.8,0.1h1.2c1.2,0,2.1-0.1,2.6-0.3
		s1-0.5,1.4-1C161.8,50.9,162.2,50.1,162.6,49.1z"/>
	<path class="st1" d="M173.7,45h7.5v-4.6c0-0.8-0.1-1.4-0.2-1.6c-0.1-0.2-0.2-0.4-0.5-0.5c-0.3-0.2-0.7-0.3-1.1-0.3h-0.6v-0.4h6.9
		V38h-0.6c-0.4,0-0.7,0.1-1.1,0.3c-0.3,0.1-0.4,0.3-0.5,0.6s-0.1,0.8-0.1,1.6v10.4c0,0.8,0.1,1.4,0.2,1.6c0.1,0.2,0.2,0.4,0.5,0.5
		c0.3,0.2,0.7,0.3,1.1,0.3h0.6v0.4h-6.9v-0.4h0.6c0.7,0,1.1-0.2,1.4-0.6c0.2-0.3,0.3-0.9,0.3-1.8V46h-7.5v4.9c0,0.8,0.1,1.4,0.2,1.6
		c0.1,0.2,0.2,0.4,0.5,0.5c0.3,0.2,0.7,0.3,1.1,0.3h0.6v0.4h-6.9v-0.4h0.6c0.7,0,1.1-0.2,1.4-0.6c0.2-0.3,0.3-0.9,0.3-1.8V40.4
		c0-0.8-0.1-1.4-0.2-1.6c-0.1-0.2-0.2-0.4-0.5-0.5c-0.3-0.2-0.7-0.3-1.1-0.3h-0.6v-0.4h6.9V38h-0.6c-0.4,0-0.7,0.1-1.1,0.3
		c-0.2,0.1-0.4,0.3-0.5,0.6s-0.1,0.8-0.1,1.6L173.7,45L173.7,45z"/>
	<path class="st1" d="M193.2,52c-1.1,0.9-1.8,1.4-2.1,1.5c-0.4,0.2-0.9,0.3-1.4,0.3c-0.8,0-1.4-0.3-1.9-0.8s-0.7-1.2-0.7-2
		c0-0.5,0.1-1,0.4-1.4c0.3-0.5,0.9-1,1.7-1.5s2.1-1.1,4-1.7V46c0-1.1-0.2-1.8-0.5-2.2s-0.8-0.6-1.5-0.6c-0.5,0-0.9,0.1-1.2,0.4
		c-0.3,0.3-0.4,0.6-0.4,0.9v0.7c0,0.4-0.1,0.6-0.3,0.8s-0.4,0.3-0.7,0.3s-0.5-0.1-0.7-0.3s-0.3-0.5-0.3-0.8c0-0.7,0.3-1.3,1-1.9
		c0.7-0.6,1.7-0.9,2.9-0.9c1,0,1.8,0.2,2.4,0.5c0.5,0.2,0.8,0.6,1,1.1c0.1,0.3,0.2,1,0.2,2.1v3.7c0,1,0,1.7,0.1,1.9
		c0,0.2,0.1,0.4,0.2,0.5c0.1,0.1,0.2,0.1,0.3,0.1s0.2,0,0.3-0.1c0.2-0.1,0.5-0.4,1-0.9V52c-0.9,1.2-1.7,1.8-2.5,1.8
		c-0.4,0-0.7-0.1-0.9-0.4C193.3,53.1,193.2,52.7,193.2,52z M193.2,51.2v-4.1c-1.2,0.5-2,0.8-2.3,1c-0.6,0.3-1.1,0.7-1.3,1.1
		c-0.3,0.4-0.4,0.8-0.4,1.2c0,0.6,0.2,1,0.5,1.4s0.7,0.6,1.2,0.6S192.2,52,193.2,51.2z"/>
	<path class="st1" d="M200.7,44.6c1.1-1.5,2.2-2.2,3.4-2.2c1.1,0,2.1,0.5,2.9,1.4c0.8,1,1.2,2.3,1.2,3.9c0,1.9-0.6,3.5-1.9,4.7
		c-1.1,1-2.3,1.5-3.7,1.5c-0.6,0-1.3-0.1-1.9-0.3s-1.3-0.6-2-1V41.3c0-1.2,0-2-0.1-2.3s-0.2-0.5-0.3-0.6s-0.3-0.2-0.5-0.2
		s-0.5,0.1-0.8,0.2l-0.2-0.4l3.3-1.3h0.5v7.9H200.7z M200.7,45.4v6.5c0.4,0.4,0.8,0.7,1.2,0.9s0.9,0.3,1.3,0.3c0.7,0,1.4-0.4,2-1.2
		s0.9-1.9,0.9-3.4c0-1.4-0.3-2.5-0.9-3.2c-0.6-0.7-1.3-1.1-2.1-1.1c-0.4,0-0.8,0.1-1.3,0.3C201.6,44.6,201.2,44.9,200.7,45.4z"/>
	<path class="st1" d="M213.7,42.4v8.7c0,0.7,0.1,1.1,0.1,1.4c0.1,0.2,0.2,0.4,0.4,0.5s0.5,0.2,1.1,0.2v0.4H210v-0.4
		c0.5,0,0.9-0.1,1.1-0.2c0.2-0.1,0.3-0.3,0.4-0.5c0.1-0.2,0.2-0.7,0.2-1.4v-4.2c0-1.2,0-1.9-0.1-2.3c-0.1-0.3-0.1-0.4-0.3-0.5
		c-0.1-0.1-0.3-0.1-0.5-0.1s-0.5,0.1-0.8,0.2l-0.2-0.4l3.3-1.3h0.6V42.4z M212.7,36.7c0.3,0,0.6,0.1,0.8,0.3s0.3,0.5,0.3,0.8
		s-0.1,0.6-0.3,0.9c-0.2,0.2-0.5,0.4-0.8,0.4s-0.6-0.1-0.9-0.4c-0.2-0.2-0.4-0.5-0.4-0.9c0-0.3,0.1-0.6,0.3-0.8
		C212,36.8,212.3,36.7,212.7,36.7z"/>
	<path class="st1" d="M219.6,44.6c1.1-1.5,2.2-2.2,3.4-2.2c1.1,0,2.1,0.5,2.9,1.4c0.8,1,1.2,2.3,1.2,3.9c0,1.9-0.6,3.5-1.9,4.7
		c-1.1,1-2.3,1.5-3.7,1.5c-0.6,0-1.3-0.1-1.9-0.3c-0.7-0.2-1.3-0.6-2-1V41.3c0-1.2,0-2-0.1-2.3s-0.2-0.5-0.3-0.6s-0.3-0.2-0.5-0.2
		s-0.5,0.1-0.8,0.2l-0.2-0.4l3.3-1.3h0.5v7.9H219.6z M219.6,45.4v6.5c0.4,0.4,0.8,0.7,1.3,0.9c0.4,0.2,0.9,0.3,1.3,0.3
		c0.7,0,1.4-0.4,2-1.2s0.9-1.9,0.9-3.4c0-1.4-0.3-2.5-0.9-3.2c-0.6-0.7-1.3-1.1-2.1-1.1c-0.4,0-0.8,0.1-1.3,0.3
		C220.5,44.6,220.1,44.9,219.6,45.4z"/>
</g>
</svg>
