<?xml version="1.0" encoding="utf-8"?>
<!-- Generator: Adobe Illustrator 26.0.3, SVG Export Plug-In . SVG Version: 6.00 Build 0)  -->
<svg version="1.1" id="Layer_1" xmlns="http://www.w3.org/2000/svg" xmlns:xlink="http://www.w3.org/1999/xlink" x="0px" y="0px"
	 viewBox="0 0 68 68" style="enable-background:new 0 0 68 68;" xml:space="preserve">
<style type="text/css">
	.st0{opacity:0.99;fill:#AD1F23;enable-background:new    ;}
	.st1{fill:#E9EFFE;}
	.st2{fill:#FF5A5F;}
	.st3{fill:#FFFFFF;}
</style>
<circle class="st0" cx="33.6" cy="33.6" r="33.6"/>
<path class="st1" d="M20.5,50.4c-1.1,0-2-0.9-2-2V18.8c0-1.1,0.9-2,2-2h21.7c0.6,0,1.2,0.3,1.6,0.8l4.5,6.1c0.3,0.3,0.4,0.8,0.4,1.2
	v23.5c0,1.1-0.9,2-2,2H20.5z"/>
<path class="st2" d="M25.2,27.3c0-0.9,0.8-1.7,1.7-1.7s1.7,0.8,1.7,1.7c0,0.9-0.8,1.7-1.7,1.7S25.2,28.2,25.2,27.3z"/>
<path class="st2" d="M30.2,26.6c0-0.6,0.4-1,1-1H41c0.6,0,1,0.4,1,1V28c0,0.6-0.4,1-1,1h-9.8c-0.6,0-1-0.4-1-1V26.6z"/>
<ellipse class="st3" cx="46" cy="18.8" rx="6" ry="6"/>
<path class="st2" d="M25.2,34c0-0.9,0.8-1.7,1.7-1.7s1.7,0.8,1.7,1.7s-0.8,1.7-1.7,1.7S25.2,34.9,25.2,34z"/>
<path class="st2" d="M30.2,33.3c0-0.6,0.4-1,1-1H41c0.6,0,1,0.4,1,1v1.4c0,0.6-0.4,1-1,1h-9.8c-0.6,0-1-0.4-1-1V33.3z"/>
<path class="st2" d="M25.2,40.3c0-0.9,0.8-1.7,1.7-1.7s1.7,0.8,1.7,1.7c0,0.9-0.8,1.7-1.7,1.7S25.2,41.2,25.2,40.3z"/>
<path class="st2" d="M30.2,40c0-0.6,0.4-1,1-1H41c0.6,0,1,0.4,1,1v1.4c0,0.6-0.4,1-1,1h-9.8c-0.6,0-1-0.4-1-1V40z"/>
<path class="st2" d="M48.2,16.5l-3,3l-1.4-1.4c-0.3-0.3-0.7-0.3-1,0c-0.3,0.3-0.3,0.7,0,1l1.9,1.9c0.3,0.3,0.7,0.3,1,0l3.4-3.5
	c0.3-0.3,0.3-0.7,0-1C48.9,16.3,48.5,16.3,48.2,16.5z"/>
</svg>
