<?xml version="1.0" encoding="utf-8"?>
<!-- Generator: Adobe Illustrator 26.0.3, SVG Export Plug-In . SVG Version: 6.00 Build 0)  -->
<svg version="1.1" id="Layer_1" xmlns="http://www.w3.org/2000/svg" xmlns:xlink="http://www.w3.org/1999/xlink" x="0px" y="0px"
	 viewBox="0 0 68 68" style="enable-background:new 0 0 68 68;" xml:space="preserve">
<style type="text/css">
	.st0{opacity:0.99;fill:#AD1F23;enable-background:new    ;}
	.st1{fill:none;stroke:#E9EFFE;stroke-width:2;}
	.st2{fill:#E9EFFE;}
	.st3{fill:#FF5A5F;}
</style>
<circle class="st0" cx="34" cy="34.1" r="33.6"/>
<path class="st1" d="M33.8,14.5L33.8,14.5c0.2-0.1,0.4-0.1,0.6,0h0L50.8,21c0.3,0.1,0.4,0.3,0.4,0.6v8c0,10.5-6.6,20-16.9,24
	c-0.1,0-0.2,0.1-0.3,0.1c-0.1,0-0.2,0-0.3-0.1c-10.2-4-16.9-13.5-16.9-24v-8c0-0.2,0.1-0.4,0.4-0.6c0,0,0,0,0,0L33.8,14.5z"/>
<path class="st2" d="M45,25.4l-10.5-4.1c-0.3-0.1-0.6-0.1-0.8,0l-10.5,4.1c-0.4,0.2-0.7,0.5-0.7,0.9v5c0,6.9,4.4,13.1,11.2,15.6
	c0.1,0,0.3,0.1,0.4,0.1c0.1,0,0.3,0,0.4-0.1c6.8-2.6,11.2-8.8,11.2-15.6v-5C45.6,25.9,45.4,25.5,45,25.4z"/>
<path class="st3" d="M38.2,29.3l-5.7,5.5l-2.8-2.7c-0.5-0.5-1.3-0.5-1.9,0c-0.5,0.5-0.5,1.3,0,1.8l3.7,3.6c0.5,0.5,1.3,0.5,1.9,0
	l6.6-6.5c0.5-0.5,0.5-1.3,0-1.8C39.6,28.8,38.7,28.8,38.2,29.3z"/>
</svg>
